<svg class="" id="Layer_1" data-name="Layer 1" xmlns="http://www.w3.org/2000/svg" viewBox="0 0 630.7409 62.7452" height="36">
	<g>
		<polygon id="fullLogo" points="0 0 0 18.301 20.915 18.301 20.915 62.745 41.83 62.745 41.83 18.301 62.745 18.301 62.745 0 0 0" style="fill: rgb(235, 129, 83);"></polygon>
		<polygon id="fullLogo-2" data-name="fullLogo" points="316.029 0 316.029 26.492 295.114 0 274.199 0 274.199 62.745 295.114 62.745 295.114 36.253 316.029 62.745 336.944 62.745 336.944 0 316.029 0" style="fill: rgb(235, 129, 83);"></polygon>
		<g id="logoMark">
			<rect id="logoMark_PathItem_" data-name="logoMark" x="608.1406" y="18.3015" width="22.6003" height="22.6003" style="fill: rgb(235, 129, 83);">
			</rect>
			<polygon id="logoMark_PathItem_2" data-name="logoMark" points="545.396 0 545.396 18.301 566.311 18.301 566.311 62.745 587.226 62.745 587.226 18.301 608.141 18.301 608.141 0 545.396 0" style="fill: rgb(235, 129, 83);">
			</polygon>
		</g>
		<path id="fullLogo-3" data-name="fullLogo" d="M68.55,0V62.7451h62.7446V0Zm41.2178,21.5271V41.218H90.0767V21.5271Z" style="fill: rgb(235, 129, 83);"></path>
		<path id="fullLogo-4" data-name="fullLogo" d="M411.2988,0V62.7451h62.7447V0Zm41.2178,21.5271V41.218H432.8257V21.5271Z" style="fill: rgb(235, 129, 83);"></path>
		<polygon id="fullLogo-5" data-name="fullLogo" points="199.844 20.915 199.844 20.915 199.844 0 169.47 0 169.47 20.915 164.242 20.915 164.242 0 137.1 0 137.1 62.745 164.242 62.745 164.242 41.83 169.47 41.83 169.47 62.745 199.844 62.745 199.844 41.83 199.844 41.83 189.387 31.373 199.844 20.915" style="fill: rgb(235, 129, 83);"></polygon>
		<polygon id="fullLogo-6" data-name="fullLogo" points="226.63 23.354 226.63 18.126 268.394 18.126 268.394 0 205.649 0 205.649 62.745 268.394 62.745 268.394 44.444 226.597 44.444 226.597 39.217 268.394 39.217 268.394 23.354 226.63 23.354" style="fill: rgb(235, 129, 83);"></polygon>
		<polygon id="fullLogo-7" data-name="fullLogo" points="363.73 18.302 405.494 18.302 405.494 0 342.749 0 342.749 39.217 384.513 39.217 384.513 44.444 342.749 44.444 342.749 62.745 405.494 62.745 405.494 23.529 363.73 23.529 363.73 18.302" style="fill: rgb(235, 129, 83);"></polygon>
		<polygon id="fullLogo-8" data-name="fullLogo" points="500.829 23.529 500.829 18.301 539.591 18.301 539.591 0 479.848 0 479.848 62.745 500.763 62.745 500.763 41.83 500.829 41.83 500.829 39.214 521.701 39.214 521.839 23.529 500.829 23.529" style="fill: rgb(235, 129, 83);"></polygon>
	</g>
</svg>